<?xml version="1.0" standalone="no"?>
<!DOCTYPE svg PUBLIC "-//W3C//DTD SVG 20010904//EN"
 "http://www.w3.org/TR/2001/REC-SVG-20010904/DTD/svg10.dtd">
<svg version="1.0" xmlns="http://www.w3.org/2000/svg"
 width="736.000000pt" height="1087.000000pt" viewBox="0 0 736.000000 1087.000000"
 preserveAspectRatio="xMidYMid meet">

<g transform="translate(0.000000,1087.000000) scale(0.100000,-0.100000)"
fill="#000000" stroke="none">
<path d="M0 5435 l0 -5435 3680 0 3680 0 0 5435 0 5435 -3680 0 -3680 0 0
-5435z m595 5416 l510 -1 -2 -92 c-1 -51 2 -126 7 -166 8 -59 7 -79 -5 -102
-8 -16 -15 -45 -15 -64 0 -19 -5 -36 -11 -38 -7 -2 -14 -36 -17 -81 l-5 -77
42 0 c32 0 41 -4 41 -17 0 -10 -39 -62 -85 -116 -47 -54 -85 -102 -85 -107 0
-14 -49 -40 -64 -34 -9 3 -29 29 -45 58 -17 28 -41 62 -54 74 -13 12 -34 45
-47 72 -13 28 -27 50 -32 50 -4 0 -8 8 -8 18 0 10 -9 25 -20 35 -11 9 -20 24
-20 32 0 8 -9 15 -19 15 -11 0 -21 6 -24 13 -3 9 -7 9 -19 -1 -13 -10 -17 -10
-21 0 -4 9 -6 9 -6 -2 0 -8 6 -24 14 -34 8 -11 15 -28 15 -38 0 -10 7 -18 15
-18 8 0 27 -19 42 -42 15 -24 42 -60 59 -81 17 -21 34 -50 37 -65 3 -15 14
-36 24 -47 38 -41 65 -95 59 -118 -3 -12 -29 -47 -57 -77 -65 -70 -112 -128
-249 -305 -41 -54 -92 -120 -113 -146 -27 -35 -44 -49 -62 -49 -23 0 -111 31
-192 66 -17 8 -42 14 -55 14 -13 0 -38 4 -56 9 -36 11 -38 6 -17 -35 8 -16 15
-24 15 -17 0 9 7 9 28 -1 15 -8 43 -21 62 -30 89 -41 155 -83 158 -98 3 -16
-29 -69 -96 -159 -15 -20 -53 -72 -85 -117 -32 -45 -63 -82 -68 -82 -5 0 -9
-5 -9 -11 0 -6 -9 -23 -21 -37 l-21 -27 6 555 c4 305 9 629 12 720 3 92 1 214
-5 275 -8 82 -17 481 -12 525 1 3 16 5 34 4 17 -1 262 -2 542 -3z m1545 -10
c0 -5 -10 -11 -22 -13 -13 -2 -22 -9 -20 -16 1 -7 -12 -15 -29 -19 -18 -3 -26
-9 -19 -13 16 -10 14 -19 -9 -39 -21 -18 -30 -48 -11 -36 6 3 10 2 10 -4 0 -6
-9 -15 -20 -21 -23 -12 -100 4 -100 20 0 6 -8 10 -17 11 -16 0 -16 1 -2 7 15
6 14 9 -1 25 -16 16 -18 16 -40 -3 -21 -18 -21 -20 -4 -21 40 -1 -19 -18 -67
-18 -36 -1 -50 -6 -61 -22 l-14 -22 -28 27 c-16 14 -36 26 -45 26 -14 0 -14 2
-1 10 10 6 11 10 3 10 -8 0 -13 13 -13 30 0 17 5 30 13 30 8 0 7 4 -3 10 -11
7 -11 10 -2 10 7 0 10 5 7 10 -7 11 -163 14 -189 4 -23 -9 5 -34 38 -34 25 0
25 -1 9 -20 -10 -11 -28 -20 -40 -20 -13 0 -23 -4 -23 -9 0 -14 -40 -20 -68
-10 -23 9 -30 6 -53 -22 -18 -23 -28 -28 -34 -20 -5 9 -11 6 -19 -11 -17 -31
-9 -50 18 -43 11 2 15 2 9 -1 -7 -3 -13 -12 -13 -20 0 -10 -7 -7 -22 10 -45
49 -58 66 -58 79 0 7 -4 17 -9 23 -7 7 -41 107 -41 121 0 2 223 3 495 3 299 0
495 -4 495 -9z m340 -1 c0 -6 -38 -9 -97 -8 -91 1 -93 2 -38 8 97 11 135 11
135 0z m50 0 c0 -5 -9 -10 -20 -10 -11 0 -20 5 -20 10 0 6 9 10 20 10 11 0 20
-4 20 -10z m4810 -57 c0 -38 -5 -75 -11 -83 -9 -13 -10 -13 -8 0 1 8 1 24 0
35 -2 19 -2 19 -15 2 -11 -14 -15 -15 -19 -5 -4 8 -6 7 -6 -4 -1 -24 -15 -23
-45 5 -13 12 -32 29 -42 37 -17 14 -16 15 7 21 13 4 20 7 15 8 -5 1 -3 8 4 16
11 13 8 15 -16 15 -22 0 -26 3 -14 10 8 5 45 10 83 10 l67 0 0 -67z m-4854
-17 c-3 -42 -30 -96 -47 -96 -5 0 -9 7 -9 15 0 9 -6 12 -15 9 -17 -7 -21 11
-5 21 6 3 10 10 10 16 0 5 -4 9 -10 9 -5 0 -9 -5 -7 -12 1 -6 -6 -14 -17 -16
-11 -2 -16 0 -12 7 4 7 -1 11 -12 11 -22 0 -34 22 -26 45 4 9 19 15 40 15 19
0 34 4 34 9 0 12 28 18 57 13 19 -4 22 -10 19 -46z m4714 44 c0 -5 -5 -10 -11
-10 -5 0 -7 5 -4 10 3 6 8 10 11 10 2 0 4 -4 4 -10z m-4817 -7 c-13 -2 -33 -2
-45 0 -13 2 -3 4 22 4 25 0 35 -2 23 -4z m-283 -28 c0 -8 -4 -15 -10 -15 -5 0
-10 7 -10 15 0 8 5 15 10 15 6 0 10 -7 10 -15z m60 -135 c0 -5 -10 -10 -22
-10 -19 0 -20 2 -8 10 19 13 30 13 30 0z m520 -43 c0 -2 -10 -12 -22 -23 l-23
-19 19 23 c18 21 26 27 26 19z m258 -47 c28 -27 56 -60 63 -72 6 -13 -3 -6
-20 14 -17 20 -50 53 -73 72 -23 20 -37 36 -31 36 5 0 33 -22 61 -50z m-319
-17 c-42 -54 -59 -74 -59 -65 0 5 9 17 20 27 12 10 18 25 15 32 -2 8 -1 11 4
8 5 -3 12 -1 16 5 3 5 9 10 12 10 3 0 -1 -8 -8 -17z m-78 -110 c-12 -20 -14
-14 -5 12 4 9 9 14 11 11 3 -2 0 -13 -6 -23z m1789 -13 c15 -11 42 -20 59 -20
31 0 39 -8 22 -25 -6 -6 -11 -32 -13 -60 l-3 -50 -28 28 c-22 21 -37 27 -72
27 -25 0 -45 5 -45 10 0 6 -8 10 -18 10 -10 0 -31 14 -47 30 -28 29 -28 30 -9
45 10 8 29 15 42 15 12 0 22 5 22 11 0 17 56 3 90 -21z m-1817 -45 c-9 -19
-18 -33 -21 -31 -4 5 26 66 33 66 3 0 -3 -16 -12 -35z m551 -50 c2 -5 7 -29
11 -52 6 -32 11 -40 24 -36 12 4 13 2 3 -4 -17 -13 -6 -38 24 -58 26 -17 33
-41 9 -31 -21 8 -19 -11 6 -45 17 -24 17 -28 4 -23 -15 6 -14 2 3 -33 14 -26
17 -44 11 -54 -5 -8 -9 -11 -9 -8 0 4 -14 51 -31 105 -36 117 -89 311 -88 322
0 6 26 -58 33 -83z m-1334 6 c5 -11 10 -36 10 -55 0 -33 2 -36 29 -36 16 0 31
-6 34 -15 4 -8 21 -22 39 -30 91 -44 92 -45 50 -90 -15 -16 -38 -45 -51 -64
-20 -27 -21 -35 -10 -42 23 -14 113 -10 135 6 26 20 29 19 42 -10 6 -14 18
-25 27 -25 18 0 20 26 3 34 -9 3 -6 11 10 25 12 10 25 33 28 50 6 28 10 31 44
31 21 0 41 6 44 13 3 6 3 0 0 -15 -4 -17 -2 -28 5 -28 16 0 14 -56 -3 -72 -8
-8 -11 -26 -8 -46 3 -23 0 -33 -12 -38 -9 -3 -16 -12 -16 -20 0 -8 -4 -14 -8
-14 -5 0 -9 -6 -10 -12 0 -7 -4 -47 -7 -88 -6 -79 -9 -96 -30 -145 -7 -16 -22
-82 -34 -145 -13 -63 -32 -146 -42 -185 -50 -177 -84 -285 -91 -285 -4 0 -37
30 -75 68 -37 37 -95 90 -127 117 -105 89 -136 130 -136 181 0 17 -3 34 -7 38
-4 3 -8 12 -9 19 -1 7 -12 39 -24 72 -12 33 -24 71 -26 85 -6 31 -42 135 -88
257 -37 98 -66 232 -66 303 0 41 1 42 15 24 9 -11 14 -14 15 -6 0 7 14 18 30
23 17 6 30 15 30 20 0 15 40 10 56 -6 9 -9 34 -15 60 -15 24 0 44 -4 44 -10 0
-5 14 -10 30 -10 25 0 30 4 30 24 0 13 -5 26 -10 28 -6 2 -2 20 10 43 11 21
20 45 20 52 0 20 38 15 50 -6z m736 -97 c-14 -49 -25 -83 -25 -75 -1 20 40
173 45 168 3 -2 -7 -44 -20 -93z m734 70 c0 -8 -4 -12 -10 -9 -5 3 -10 10 -10
16 0 5 5 9 10 9 6 0 10 -7 10 -16z m-103 -36 c-3 -7 -5 -2 -5 12 0 14 2 19 5
13 2 -7 2 -19 0 -25z m111 -11 c2 -10 -3 -17 -12 -17 -10 0 -16 9 -16 21 0 24
23 21 28 -4z m1179 -53 c-3 -3 -12 -4 -19 -1 -8 3 -5 6 6 6 11 1 17 -2 13 -5z
m444 -17 c-10 -9 -11 -8 -5 6 3 10 9 15 12 12 3 -3 0 -11 -7 -18z m-20 -44
c-12 -20 -14 -14 -5 12 4 9 9 14 11 11 3 -2 0 -13 -6 -23z m-3540 -189 c38
-112 69 -242 69 -281 0 -12 4 -32 9 -45 17 -44 33 -100 37 -128 5 -27 4 -27
-44 -22 -45 4 -49 2 -47 -17 2 -27 31 -59 75 -81 61 -32 86 -75 148 -255 49
-143 59 -194 42 -205 -23 -15 -59 -12 -88 6 -36 23 -182 242 -207 312 -12 32
-26 67 -33 79 -7 12 -12 27 -12 33 0 18 -94 209 -125 255 -35 50 -45 144 -23
202 9 21 19 59 22 86 9 61 46 144 81 181 27 30 28 30 44 10 9 -11 33 -70 52
-130z m1906 84 c-3 -8 -6 -5 -6 6 -1 11 2 17 5 13 3 -3 4 -12 1 -19z m-760
-40 c-3 -8 -6 -5 -6 6 -1 11 2 17 5 13 3 -3 4 -12 1 -19z m767 -60 c-2 -3 5
-50 16 -103 11 -54 19 -114 19 -134 -1 -30 -3 -27 -10 19 -10 64 -36 194 -46
229 -6 22 -5 23 9 10 9 -7 14 -17 12 -21z m1537 -25 c-12 -20 -14 -14 -5 12 4
9 9 14 11 11 3 -2 0 -13 -6 -23z m-3671 -12 c0 -32 -22 -81 -41 -91 -26 -14
-45 20 -28 53 28 53 69 77 69 38z m2190 -148 c-11 -17 -11 -17 -6 0 3 10 7 31
7 45 l2 27 4 -27 c2 -15 -1 -35 -7 -45z m-2296 5 c20 -29 20 -91 1 -154 -33
-105 -65 -215 -65 -224 0 -9 -31 -84 -49 -120 -5 -8 -7 -29 -4 -45 5 -45 -20
-139 -38 -143 -8 -1 -27 7 -42 18 -35 27 -35 64 -2 86 27 17 34 44 12 44 -7 0
-23 -11 -35 -25 -35 -40 -123 -31 -142 15 -13 31 0 98 26 134 8 11 14 26 14
33 0 15 47 92 65 108 14 12 121 156 178 239 42 61 58 68 81 34z m4487 -9 c-5
-13 -10 -19 -10 -12 -1 15 10 45 15 40 3 -2 0 -15 -5 -28z m1382 -50 c5 -4 10
-31 10 -60 0 -48 -3 -54 -23 -57 -28 -5 -73 14 -96 39 -16 18 -16 20 1 39 11
12 31 20 49 20 23 0 27 3 18 12 -7 7 -12 15 -12 19 0 12 35 16 39 4 2 -5 8
-13 14 -16z m-2156 -11 c-3 -8 -6 -5 -6 6 -1 11 2 17 5 13 3 -3 4 -12 1 -19z
m760 0 c-3 -8 -6 -5 -6 6 -1 11 2 17 5 13 3 -3 4 -12 1 -19z m-770 -40 c-3 -8
-6 -5 -6 6 -1 11 2 17 5 13 3 -3 4 -12 1 -19z m738 -83 c-15 -47 -30 -84 -32
-81 -2 2 8 43 23 90 14 48 29 85 31 82 3 -3 -7 -44 -22 -91z m-1980 -8 c6 -30
11 -37 31 -37 13 0 24 -4 24 -9 0 -5 3 -23 6 -40 5 -25 3 -31 -10 -31 -10 0
-14 -5 -11 -10 4 -6 11 -8 16 -5 5 4 9 -1 9 -10 0 -8 -7 -18 -15 -21 -8 -4
-15 -11 -15 -17 0 -14 -72 -77 -87 -77 -7 0 -13 -6 -13 -14 0 -7 -10 -16 -22
-20 -33 -8 -40 -7 -32 6 5 7 3 8 -6 3 -10 -6 -9 -11 6 -23 18 -13 17 -14 -8
-8 -16 4 -28 4 -28 2 0 -2 -3 -12 -7 -22 -5 -14 -3 -16 11 -11 11 4 15 3 11
-4 -4 -6 -14 -8 -23 -4 -8 3 -19 0 -23 -7 -4 -7 -10 -10 -13 -7 -3 3 4 16 15
28 12 12 18 25 15 28 -3 4 1 15 11 25 9 11 11 18 5 18 -7 0 -12 -4 -12 -10 0
-5 -5 -10 -11 -10 -5 0 -8 4 -5 9 4 5 -12 12 -34 16 -22 4 -40 10 -40 13 0 3
19 26 43 50 42 43 42 43 22 60 -31 25 -34 43 -19 103 10 39 13 44 10 16 -4
-29 -2 -34 7 -24 16 17 35 48 46 73 14 31 53 57 62 42 4 -7 5 -16 3 -20 -3 -4
2 -5 10 -2 9 3 13 10 10 15 -3 5 -2 14 1 19 10 16 53 -43 60 -83z m1226 18
c-6 -35 -9 -41 -10 -20 -1 30 9 78 15 73 2 -2 -1 -26 -5 -53z m-44 -12 c-3
-10 -5 -4 -5 12 0 17 2 24 5 18 2 -7 2 -21 0 -30z m2068 -3 c20 -8 26 -15 22
-30 -4 -15 2 -24 24 -35 36 -19 53 -49 36 -63 -7 -5 -21 -6 -32 -1 -11 4 -37
8 -57 8 -37 1 -38 2 -38 40 0 22 -5 41 -10 43 -6 2 -4 12 5 26 19 26 16 25 50
12z m-1252 -25 c-3 -9 -8 -14 -10 -11 -3 3 -2 9 2 15 9 16 15 13 8 -4z m-4334
-123 c19 -59 47 -134 63 -167 50 -108 120 -360 107 -386 -9 -17 -79 -39 -123
-39 -18 0 -50 22 -102 70 -112 101 -109 96 -94 199 7 47 27 138 46 201 18 63
35 129 38 145 11 62 18 85 24 85 4 0 22 -48 41 -108z m3431 99 c0 -6 -4 -13
-10 -16 -5 -3 -10 1 -10 9 0 9 5 16 10 16 6 0 10 -4 10 -9z m117 -38 c-3 -10
-5 -2 -5 17 0 19 2 27 5 18 2 -10 2 -26 0 -35z m733 -29 c-13 -32 -12 -37 0
-29 6 3 10 1 10 -5 0 -7 -6 -10 -14 -7 -16 6 -43 -19 -32 -30 3 -3 6 -1 6 5 0
7 4 12 9 12 14 0 20 -26 9 -41 -8 -11 -9 -11 -5 3 4 12 0 16 -14 15 -10 -1
-19 -5 -19 -10 0 -4 -14 -21 -31 -36 -21 -20 -27 -30 -17 -33 7 -3 0 -5 -15
-5 -16 0 -36 -8 -45 -17 -15 -15 -15 -18 -2 -26 8 -5 12 -12 9 -15 -4 -3 -17
3 -29 13 l-24 19 39 19 c52 24 107 82 136 144 24 51 46 70 29 24z m-700 -24
c12 -16 19 -30 16 -30 -2 0 -14 14 -26 30 -12 17 -19 30 -16 30 2 0 14 -13 26
-30z m-2473 -52 c-3 -8 -6 -5 -6 6 -1 11 2 17 5 13 3 -3 4 -12 1 -19z m2530
-5 c2 -6 -14 -12 -41 -14 -24 -2 -42 -1 -39 4 2 4 18 7 34 7 20 0 28 4 23 11
-4 7 -1 10 6 7 8 -2 15 -9 17 -15z m2037 1 c11 -4 16 -19 16 -45 0 -32 -3 -39
-20 -39 -15 0 -20 7 -20 29 0 16 -6 31 -15 35 -8 3 -15 10 -15 16 0 11 30 13
54 4z m-2100 -65 c-9 -15 -20 -10 -20 10 0 15 3 17 13 9 7 -6 10 -14 7 -19z
m804 9 c21 -21 13 -28 -35 -28 -45 0 -46 0 -28 20 20 23 45 26 63 8z m-1579
-12 c-2 -2 -65 -6 -139 -8 -74 -3 -110 -2 -80 2 59 7 226 12 219 6z m308 -12
c-3 -3 -12 -4 -19 -1 -8 3 -5 6 6 6 11 1 17 -2 13 -5z m-604 -11 c-7 -2 -19
-2 -25 0 -7 3 -2 5 12 5 14 0 19 -2 13 -5z m1765 -4 c-2 -6 -8 -10 -13 -10 -5
0 -11 4 -13 10 -2 6 4 11 13 11 9 0 15 -5 13 -11z m-2118 -14 c0 -8 -7 -15
-15 -15 -16 0 -20 12 -8 23 11 12 23 8 23 -8z m1155 5 c42 -11 1 -11 -50 -1
-34 7 -35 9 -10 9 17 0 44 -4 60 -8z m-2210 -78 c-1 -37 -3 -84 -4 -104 -1
-27 -6 -38 -16 -38 -11 0 -15 12 -15 46 0 60 21 175 31 169 4 -3 6 -35 4 -73z
m292 56 c-3 -8 -6 -5 -6 6 -1 11 2 17 5 13 3 -3 4 -12 1 -19z m2188 2 c3 -5 1
-10 -4 -10 -6 0 -11 5 -11 10 0 6 2 10 4 10 3 0 8 -4 11 -10z m560 -60 c-10
-11 -22 -20 -27 -20 -10 0 24 38 36 39 5 1 1 -8 -9 -19z m1637 3 c25 -23 23
-33 -8 -33 -24 0 -53 23 -54 43 0 14 43 7 62 -10z m-1634 -65 c20 -12 44 -22
52 -21 10 2 11 1 2 -3 -10 -5 -10 -9 -1 -20 23 -28 -4 -13 -57 32 -30 26 -54
52 -54 58 0 6 5 3 10 -6 6 -9 27 -27 48 -40z m-4755 9 c7 -19 -37 -182 -59
-215 -9 -15 -23 -31 -31 -35 -7 -5 -28 -34 -45 -64 -32 -56 -166 -203 -186
-203 -6 0 -17 -21 -26 -46 -16 -47 -52 -94 -73 -94 -9 0 -13 18 -13 58 0 58 0
59 40 81 22 12 40 28 40 34 1 38 95 185 273 430 48 66 70 80 80 54z m1252 -27
c3 -8 22 -33 43 -55 45 -46 66 -81 57 -95 -7 -12 -55 -13 -70 -2 -15 11 -75
159 -75 185 0 12 40 -17 45 -33z m879 4 c19 -7 21 -40 4 -50 -7 -5 -9 -2 -5 9
7 19 -9 33 -43 40 l-25 4 27 2 c14 0 33 -2 42 -5z m-2024 -34 c0 -5 -4 -10
-10 -10 -5 0 -10 5 -10 10 0 6 5 10 10 10 6 0 10 -4 10 -10z m93 -41 c44 -23
107 -81 107 -98 0 -10 -15 -47 -33 -82 -64 -122 -120 -224 -132 -242 -11 -16
-95 -67 -110 -67 -11 0 -4 89 10 130 8 23 15 53 15 65 0 12 -7 28 -15 35 -11
9 -15 9 -15 1 0 -7 -5 -9 -11 -6 -13 9 -3 77 18 122 15 33 121 152 136 153 5
0 18 -5 30 -11z m4586 7 c-11 -9 -69 -15 -64 -6 3 6 20 10 37 10 17 0 29 -2
27 -4z m-144 -26 c3 -5 1 -10 -4 -10 -6 0 -11 5 -11 10 0 6 2 10 4 10 3 0 8
-4 11 -10z m83 -92 c35 -42 22 -34 -28 19 -25 25 -34 38 -20 28 14 -10 35 -31
48 -47z m-3813 44 c19 -14 37 -54 27 -64 -17 -17 -40 3 -44 38 -4 35 -1 39 17
26z m1125 -23 c0 -6 -4 -7 -10 -4 -5 3 -10 11 -10 16 0 6 5 7 10 4 6 -3 10
-11 10 -16z m40 -29 c0 -5 -15 -17 -32 -26 l-33 -17 25 26 c27 27 40 33 40 17z
m2695 -50 c10 -11 16 -20 13 -20 -3 0 -13 9 -23 20 -10 11 -16 20 -13 20 3 0
13 -9 23 -20z m-4278 -93 c-6 -18 -33 -31 -51 -24 -19 7 -20 25 -5 64 l11 28
24 -29 c14 -15 23 -33 21 -39z m1201 7 c-2 -27 -8 -39 -18 -39 -19 0 -25 47
-10 76 17 30 32 10 28 -37z m-524 -19 c9 -35 16 -71 16 -80 0 -25 -19 -17 -32
13 -7 15 -23 44 -36 64 -28 43 -23 68 11 68 22 0 26 -7 41 -65z m193 8 c-3
-10 -5 -2 -5 17 0 19 2 27 5 18 2 -10 2 -26 0 -35z m-325 -23 c15 -30 29 -67
31 -82 1 -15 10 -35 19 -45 40 -47 50 -111 24 -162 -26 -50 -38 -53 -75 -19
-30 28 -32 35 -29 84 2 35 -1 54 -8 54 -21 0 -32 24 -50 112 -20 97 -13 122
35 116 20 -2 32 -15 53 -58z m-202 -67 c0 -37 -1 -37 -52 1 -35 25 -38 63 -5
68 30 6 57 -26 57 -69z m4103 -28 c46 -83 57 -105 54 -105 -6 0 -67 101 -67
111 0 5 -4 9 -9 9 -5 0 -12 7 -15 16 -5 14 -4 15 9 4 8 -7 21 -23 28 -35z
m-4269 -28 c87 -89 161 -176 170 -201 8 -20 2 -34 -27 -79 -21 -31 -37 -61
-37 -68 0 -9 -17 -10 -67 -6 -38 4 -116 7 -175 7 l-106 0 -1 158 c-2 180 -7
169 88 214 82 39 96 36 155 -25z m-833 -20 c-2 -35 -9 -58 -21 -71 -18 -18
-20 -18 -26 -2 -4 9 1 34 9 54 9 20 19 47 22 60 11 37 19 16 16 -41z m1959 60
c0 -2 -10 -12 -22 -23 l-23 -19 19 23 c18 21 26 27 26 19z m-150 -157 c-12
-16 -24 -30 -26 -30 -3 0 4 14 16 30 12 17 24 30 26 30 3 0 -4 -13 -16 -30z
m2975 -13 c162 -83 193 -250 73 -383 -85 -92 -181 -118 -295 -80 -117 39 -170
122 -160 254 8 123 52 188 153 227 59 23 167 14 229 -18z m-2135 4 c132 -50
201 -165 170 -281 -16 -62 -97 -140 -176 -170 -88 -34 -185 -37 -257 -10 -107
40 -157 103 -157 198 0 131 74 237 190 273 51 15 178 10 230 -10z m2548 -26
c-3 -3 -9 2 -12 12 -6 14 -5 15 5 6 7 -7 10 -15 7 -18z m941 -21 c12 -19 18
-40 15 -46 -4 -6 -1 -13 5 -17 19 -12 33 -169 19 -209 -19 -51 -42 -38 -49 28
-3 30 -10 66 -14 80 -5 14 -9 40 -9 59 -1 24 -7 36 -21 42 -18 7 -18 8 -2 8
15 1 17 6 12 31 -4 19 -2 36 5 45 16 20 15 20 39 -21z m-914 -25 c9 -17 15
-33 13 -35 -3 -2 -12 12 -21 31 -21 43 -13 47 8 4z m-5353 -2 c6 -32 -4 -55
-47 -104 -37 -44 -65 -55 -65 -28 0 42 69 155 95 155 7 0 15 -11 17 -23z
m6175 -43 c-3 -3 -12 -4 -19 -1 -8 3 -5 6 6 6 11 1 17 -2 13 -5z m-5754 -117
c-9 -31 -20 -54 -24 -51 -11 6 0 103 13 129 21 38 28 -16 11 -78z m770 22 c2
-8 5 -19 9 -24 4 -7 -8 -9 -33 -7 l-39 4 23 28 c21 27 36 27 40 -1z m-567 -75
c9 -65 0 -141 -21 -164 -24 -27 -45 -25 -45 3 0 30 28 186 36 198 12 20 23 7
30 -37z m147 39 c-7 -2 -19 -2 -25 0 -7 3 -2 5 12 5 14 0 19 -2 13 -5z m183
-25 c32 -6 60 -12 62 -13 5 -4 -67 -122 -84 -139 -8 -9 -19 -16 -23 -16 -15 0
-34 55 -37 107 -1 29 -5 57 -9 63 -8 13 17 13 91 -2z m4531 -24 c-3 -3 -12 -4
-19 -1 -8 3 -5 6 6 6 11 1 17 -2 13 -5z m-5424 -64 c-2 -53 -35 -150 -52 -150
-13 0 -27 21 -46 73 l-18 48 44 45 c58 59 75 55 72 -16z m1139 44 c4 -3 3 -16
-3 -31 -7 -20 -6 -30 6 -43 20 -23 19 -44 -7 -112 l-23 -58 -62 0 c-85 0 -92
4 -83 46 8 35 23 60 49 80 11 9 11 15 1 34 -10 18 -10 32 0 63 l12 39 51 -6
c28 -4 54 -9 59 -12z m521 -11 c-7 -2 -21 -2 -30 0 -10 3 -4 5 12 5 17 0 24
-2 18 -5z m-1359 -69 c-1 -56 -13 -96 -27 -91 -16 5 -21 91 -7 117 17 32 35
18 34 -26z m410 -22 c24 -39 29 -57 27 -99 -1 -20 -7 -23 -40 -23 l-39 0 9 39
c5 21 5 51 0 69 -6 20 -5 34 2 41 15 15 14 16 41 -27z m-144 -112 c-19 -13
-30 -13 -30 0 0 6 10 10 23 10 18 0 19 -2 7 -10z m5108 3 c-10 -2 -26 -2 -35
0 -10 3 -2 5 17 5 19 0 27 -2 18 -5z m-5245 -40 c-7 -2 -19 -2 -25 0 -7 3 -2
5 12 5 14 0 19 -2 13 -5z m142 -13 c12 0 16 -3 9 -8 -6 -4 -14 -19 -18 -34 -5
-22 -12 -28 -32 -28 -14 0 -23 4 -19 10 3 6 1 10 -4 10 -6 0 -11 11 -11 24 0
13 -6 27 -12 30 -7 4 5 4 27 1 22 -3 49 -5 60 -5z m171 -72 c-8 -39 -39 -74
-56 -63 -14 8 -6 60 11 82 6 7 20 13 31 13 18 0 20 -4 14 -32z m309 22 c17 -4
23 -8 14 -9 -9 0 -31 -4 -49 -8 -22 -4 -31 -3 -26 5 3 5 0 13 -6 15 -20 8 33
6 67 -3z m424 -87 l-1 -48 -10 35 c-5 19 -17 41 -26 48 -14 10 -12 12 11 12
26 0 27 -2 26 -47z m-528 -96 c-8 -8 -11 -5 -11 9 0 27 14 41 18 19 2 -9 -1
-22 -7 -28z m-383 -134 c6 -25 6 -43 1 -43 -5 0 -8 -3 -8 -7 4 -25 -3 -43 -17
-43 -11 0 -15 8 -12 27 4 32 -27 46 -35 16 -3 -12 -5 -10 -6 8 -1 19 4 26 16
25 12 -1 20 11 26 37 11 45 22 39 35 -20z m189 -59 c-3 -3 -12 -4 -19 -1 -8 3
-5 6 6 6 11 1 17 -2 13 -5z m-907 -51 c0 -38 -13 -63 -31 -63 -14 0 -19 7 -19
28 0 30 16 52 37 52 7 0 13 -8 13 -17z m910 -18 c-7 -8 -18 -15 -25 -15 -7 0
-15 7 -19 15 -4 11 2 15 26 15 26 0 29 -2 18 -15z m320 -318 c0 -2 -15 -16
-32 -33 l-33 -29 29 33 c28 30 36 37 36 29z m2462 -34 c178 -19 208 -20 424
-7 181 12 238 9 230 -12 -8 -20 2 -23 110 -34 152 -17 231 -36 279 -68 32 -21
61 -31 108 -35 84 -8 150 -34 239 -94 40 -27 93 -55 117 -62 53 -15 109 -49
165 -100 22 -21 75 -60 116 -86 41 -27 107 -83 145 -124 39 -41 114 -119 167
-174 64 -66 108 -121 132 -166 19 -36 51 -82 71 -101 21 -19 55 -62 77 -94 40
-57 140 -249 186 -353 27 -61 46 -156 37 -183 -3 -11 3 -54 14 -95 13 -47 21
-106 21 -158 0 -45 6 -116 14 -158 16 -94 5 -715 -19 -1004 -33 -405 -79 -656
-126 -689 -16 -11 -22 -37 -35 -147 -9 -82 -23 -151 -35 -179 -11 -25 -31 -79
-44 -120 -15 -45 -37 -89 -55 -110 -33 -37 -31 -25 4 25 20 28 21 42 19 225
-1 181 -3 201 -27 273 -14 43 -26 91 -26 107 0 38 -34 111 -63 137 -12 11 -42
25 -65 32 -30 8 -59 28 -90 60 -77 79 -94 84 -230 72 -226 -20 -328 -38 -374
-65 -24 -13 -68 -34 -99 -46 -76 -28 -168 -89 -225 -147 -60 -63 -193 -262
-250 -374 -78 -157 -125 -335 -139 -529 -13 -187 -69 -299 -149 -300 -28 0
-28 1 -13 18 32 35 18 38 -70 19 -77 -16 -111 -17 -273 -10 -272 11 -362 7
-489 -22 -132 -30 -130 -30 -124 -5 7 28 -11 26 -88 -9 -112 -50 -204 -80
-220 -71 -11 7 -15 56 -20 242 -5 204 -9 246 -32 338 -71 291 -177 478 -329
581 -41 28 -58 46 -58 62 -1 51 -48 96 -155 149 -155 78 -233 108 -305 118
-41 6 -82 18 -92 27 -24 22 -86 14 -239 -32 -212 -63 -272 -107 -351 -260 -71
-138 -109 -262 -115 -376 -7 -115 5 -160 104 -404 74 -182 85 -215 73 -215
-17 0 -125 108 -160 158 -19 28 -44 55 -56 61 -25 11 -80 119 -110 214 -14 46
-22 57 -39 57 -17 0 -25 9 -34 41 -17 56 -41 197 -41 240 0 42 -18 99 -31 99
-5 0 -9 -8 -10 -17 0 -13 -3 -11 -10 6 -5 13 -14 108 -20 210 -6 102 -16 192
-21 199 -13 15 -3 153 17 237 20 85 19 98 -5 90 -18 -6 -20 -3 -16 17 6 27 23
150 30 228 3 30 13 167 21 303 9 137 20 272 25 300 6 29 41 149 79 267 39 118
89 274 111 345 33 102 54 148 97 214 50 74 54 85 40 96 -11 8 -14 19 -10 36
10 40 83 149 157 236 44 51 71 92 72 107 1 33 18 56 100 145 61 66 66 75 51
86 -9 7 -17 17 -17 23 0 18 121 119 209 174 46 29 96 64 109 77 76 72 380 231
586 306 28 10 59 28 71 41 26 28 73 40 206 53 58 6 113 13 122 17 20 7 22 21
5 26 -17 6 134 37 227 47 131 14 256 12 417 -6z m-2907 -3508 c-7 -51 -25 -70
-25 -27 0 36 22 101 28 84 2 -7 1 -33 -3 -57z m117 -121 l-9 -79 -1 100 c0 75
2 95 10 79 6 -14 7 -47 0 -100z m5548 41 c4 -80 -1 -91 -15 -35 -8 30 -14 66
-15 80 0 43 28 1 30 -45z m-5498 3 c-8 -8 -9 -4 -5 13 4 13 8 18 11 10 2 -7
-1 -18 -6 -23z m5378 -115 c0 -74 -3 -103 -10 -93 -18 28 -12 200 7 200 2 0 3
-48 3 -107z m-4043 -693 c53 -135 56 -204 4 -132 -21 30 -91 259 -91 295 1 29
41 -48 87 -163z m307 -27 c-4 -46 -10 -83 -15 -83 -31 0 -35 150 -7 245 l12
40 8 -60 c4 -33 5 -97 2 -142z m2192 24 c-9 -40 -33 -103 -54 -141 -43 -79
-67 -98 -51 -42 11 39 80 225 101 271 12 28 13 28 16 6 2 -12 -4 -55 -12 -94z
m364 11 c-51 -121 -103 -213 -124 -217 -17 -3 -18 1 -13 35 4 20 18 60 32 89
33 65 128 192 133 177 2 -6 -11 -44 -28 -84z m-3163 -102 c36 -71 75 -177 68
-185 -10 -9 -32 25 -81 124 -46 95 -58 149 -28 124 8 -7 27 -35 41 -63z m3493
1 c0 -21 -92 -172 -131 -216 -36 -40 -84 -67 -93 -52 -8 12 56 102 163 229 44
52 61 63 61 39z m-2660 -512 c17 -20 15 -102 -3 -146 -35 -84 -111 -140 -208
-154 -92 -14 -115 35 -60 130 74 128 227 223 271 170z m2066 -95 c109 -54 175
-134 147 -179 -8 -12 -27 -16 -84 -16 -63 0 -84 5 -141 34 -114 56 -180 128
-161 177 7 19 30 23 106 20 51 -3 83 -11 133 -36z m-3238 -487 c-10 -2 -28 -2
-40 0 -13 2 -5 4 17 4 22 1 32 -1 23 -4z"/>
<path d="M525 10820 c-3 -5 0 -10 7 -10 9 0 9 -3 -2 -10 -12 -8 -11 -10 8 -10
12 0 22 5 22 10 0 6 17 10 38 10 20 0 44 5 52 10 11 7 -5 10 -52 10 -37 0 -70
-4 -73 -10z"/>
<path d="M480 10741 c0 -3 -14 -12 -30 -19 -17 -8 -28 -17 -25 -22 3 -4 -2
-24 -10 -44 -14 -34 -14 -36 9 -51 25 -17 56 -11 56 11 0 9 11 14 30 14 28 0
30 -2 30 -40 0 -36 3 -40 25 -40 23 0 25 4 25 45 0 31 -5 47 -15 51 -9 4 -15
19 -15 35 0 19 5 29 15 29 8 0 15 5 15 10 0 6 -9 10 -20 10 -11 0 -20 4 -20 8
0 5 -16 9 -35 9 -19 0 -35 -3 -35 -6z"/>
<path d="M791 10433 c-1 -24 -6 -43 -12 -43 -20 0 -4 -35 17 -36 12 -1 26 -4
32 -8 6 -4 16 3 22 14 9 17 8 27 -5 46 -8 13 -20 24 -26 24 -5 0 -14 10 -19
23 -7 18 -9 15 -9 -20z"/>
<path d="M1680 10215 c0 -8 4 -15 9 -15 5 0 14 7 21 15 10 13 9 15 -9 15 -12
0 -21 -6 -21 -15z"/>
<path d="M1510 10155 c0 -20 28 -31 43 -16 6 6 19 11 29 11 10 0 18 5 18 10 0
6 -20 10 -45 10 -34 0 -45 -4 -45 -15z"/>
<path d="M1660 10160 c0 -5 5 -10 10 -10 6 0 10 5 10 10 0 6 -4 10 -10 10 -5
0 -10 -4 -10 -10z"/>
<path d="M974 8535 c-13 -19 -22 -63 -30 -139 -13 -123 -12 -126 44 -126 36 0
34 -7 32 115 -1 44 -7 102 -14 129 l-13 50 -19 -29z"/>
<path d="M4855 8369 c-19 -17 -40 -48 -46 -69 -10 -33 -9 -43 8 -72 24 -42 80
-73 116 -64 14 3 38 19 52 34 49 53 42 127 -17 177 -39 33 -70 31 -113 -6z
m45 -64 c0 -16 -27 -32 -37 -22 -3 4 -3 13 0 22 8 20 37 20 37 0z"/>
<path d="M2803 8360 c-36 -22 -63 -66 -63 -105 0 -15 14 -40 33 -61 26 -29 42
-37 80 -41 44 -5 49 -3 87 35 32 32 40 47 40 76 0 92 -98 145 -177 96z m22
-66 c0 -10 -8 -20 -17 -22 -18 -3 -26 27 -11 42 12 11 28 0 28 -20z"/>
<path d="M3705 6614 c-151 -34 -338 -168 -401 -288 -25 -47 -27 -57 -16 -81 7
-14 28 -33 47 -41 41 -17 69 -9 227 62 221 99 247 101 445 35 133 -45 155 -48
173 -26 33 40 -43 177 -143 257 -107 85 -208 110 -332 82z"/>
<path d="M5020 6496 c-69 -20 -177 -78 -267 -144 -97 -72 -136 -119 -131 -159
3 -28 4 -28 65 -26 41 2 93 14 160 39 161 59 192 66 242 54 59 -15 118 -57
222 -156 95 -91 125 -107 146 -78 15 21 12 36 -28 123 -70 153 -272 364 -346
360 -10 0 -38 -6 -63 -13z"/>
<path d="M2457 6399 c-97 -23 -218 -112 -383 -280 -132 -135 -174 -191 -174
-234 0 -39 21 -59 53 -51 12 3 86 49 162 102 77 53 175 117 219 142 93 55 142
61 313 42 104 -11 115 -11 150 6 31 15 39 25 41 51 3 27 -5 41 -44 83 -103
111 -233 164 -337 139z"/>
<path d="M4230 5917 c-126 -43 -290 -164 -320 -238 -10 -22 -10 -36 -2 -54 16
-35 60 -33 241 9 211 49 208 49 291 26 218 -60 244 -61 256 -16 24 98 -225
297 -370 296 -17 0 -60 -11 -96 -23z"/>
<path d="M3141 5830 c-142 -30 -401 -214 -401 -285 0 -60 54 -57 221 12 150
61 205 63 366 10 181 -59 216 -49 167 49 -79 157 -219 241 -353 214z"/>
<path d="M5363 5720 c-61 -22 -133 -69 -162 -106 -32 -41 -47 -99 -33 -129 15
-32 53 -33 165 -4 105 26 191 28 237 4 19 -10 67 -43 105 -74 95 -76 122 -93
148 -89 20 3 22 8 21 73 -1 126 -84 253 -206 314 -54 27 -71 31 -142 30 -52 0
-100 -7 -133 -19z"/>
<path d="M1960 5635 c-25 -8 -64 -30 -87 -50 -87 -74 -233 -301 -233 -361 0
-56 59 -40 185 52 50 36 117 79 150 95 58 28 65 29 206 29 l147 0 6 25 c8 33
-18 94 -52 123 -41 34 -115 71 -179 87 -68 18 -84 18 -143 0z"/>
</g>
</svg>
